<?xml version="1.0" encoding="UTF-8" standalone="no"?>
<!-- Generator: Adobe Illustrator 22.0.1, SVG Export Plug-In . SVG Version: 6.00 Build 0)  -->

<svg
   xmlns:dc="http://purl.org/dc/elements/1.1/"
   xmlns:cc="http://creativecommons.org/ns#"
   xmlns:rdf="http://www.w3.org/1999/02/22-rdf-syntax-ns#"
   xmlns:svg="http://www.w3.org/2000/svg"
   xmlns="http://www.w3.org/2000/svg"
   xmlns:sodipodi="http://sodipodi.sourceforge.net/DTD/sodipodi-0.dtd"
   xmlns:inkscape="http://www.inkscape.org/namespaces/inkscape"
   version="1.1"
   id="Calque_1"
   x="0px"
   y="0px"
   viewBox="0 0 128 128"
   xml:space="preserve"
   sodipodi:docname="logo_re2o_navbar.svg"
   width="128"
   height="128"
   inkscape:version="0.92.3 (2405546, 2018-03-11)"><metadata
   id="metadata137"><rdf:RDF><cc:Work
       rdf:about=""><dc:format>image/svg+xml</dc:format><dc:type
         rdf:resource="http://purl.org/dc/dcmitype/StillImage" /><dc:title></dc:title></cc:Work></rdf:RDF></metadata><defs
   id="defs135" /><sodipodi:namedview
   pagecolor="#ffffff"
   bordercolor="#666666"
   borderopacity="1"
   objecttolerance="10"
   gridtolerance="10"
   guidetolerance="10"
   inkscape:pageopacity="0"
   inkscape:pageshadow="2"
   inkscape:window-width="1853"
   inkscape:window-height="1025"
   id="namedview133"
   showgrid="false"
   inkscape:zoom="1.4177726"
   inkscape:cx="267.64168"
   inkscape:cy="26.667212"
   inkscape:window-x="67"
   inkscape:window-y="27"
   inkscape:window-maximized="1"
   inkscape:current-layer="Calque_1" />
<style
   type="text/css"
   id="style102">
	.st0{fill:#ED2024;}
	.st1{stroke:#000000;stroke-miterlimit:10;}
	.st2{fill:#F9A01B;}
	.st3{fill:#FFFFFF;}
	.st4{fill:none;}
	.st5{font-family:'RobotoSlab-Regular';}
	.st6{font-size:58.0541px;}
	.st7{fill:#E64F25;}
</style>
<path
   class="st0"
   d="M 84.261307,119.98209 H 16.723618 c -4.716918,0 -8.5762143,-3.86577 -8.5762143,-8.5906 V 43.812084 c 2.9302063,1.07382 6.0748183,1.574934 9.3623673,1.574934 2.429927,0 4.859855,-0.286354 7.075377,-0.930654 V 94.85459 c 0,4.72483 3.859296,8.59059 8.576214,8.59059 h 50.242323 c -0.571747,2.21924 -0.857621,4.51007 -0.857621,6.94407 0,3.43624 0.643216,6.58613 1.715243,9.59284 z"
   id="path104"
   inkscape:connector-curvature="0"
   style="fill:#ed2024;stroke-width:0.71528387" />
<path
   class="st0"
   d="M 119.8526,16.751673 V 84.11633 c -2.93021,-1.07382 -6.07482,-1.57494 -9.36237,-1.57494 -2.42993,0 -4.85986,0.28636 -7.07538,0.93065 V 33.28859 c 0,-4.724832 -3.859294,-8.590604 -8.576212,-8.590604 H 44.524846 c 0.571748,-2.290827 0.92909,-4.653248 0.92909,-7.087252 0,-3.293055 -0.571747,-6.442953 -1.572306,-9.37807 h 67.46622 c 4.64545,-0.07163 8.50475,3.794187 8.50475,8.519009 z"
   id="path106"
   inkscape:connector-curvature="0"
   style="fill:#ed2024;stroke-width:0.71528387" />
<path
   class="st1"
   d="m 104.55835,96.21477 c -3.8593,1.57494 -6.860974,4.72481 -8.43328,8.59059 L 73.255165,81.8971 45.954216,54.550338 23.084311,31.642052 c 3.859296,-1.574934 6.932439,-4.653238 8.504745,-8.51901 l 24.08487,24.125273 24.871021,24.912765 z"
   id="path108"
   inkscape:connector-curvature="0"
   style="fill:#ffffff;stroke:#ffffff;stroke-width:0.71528387;stroke-miterlimit:10" />
<g
   id="g114"
   transform="matrix(0.71468453,0,0,0.71588367,-231.27192,-117.61969)">
	<path
   class="st2"
   d="m 478.2,341.5 c -12.7,0 -23,-10.3 -23,-23 0,-2.9 0.5,-5.7 1.6,-8.3 2.2,-5.8 6.8,-10.5 12.6,-12.9 2.8,-1.2 5.8,-1.8 8.8,-1.8 12.7,0 23,10.3 23,23 0,12.7 -10.3,23 -23,23 z"
   id="path110"
   inkscape:connector-curvature="0"
   style="fill:#f9a01b" />
	<path
   class="st3"
   d="m 478.2,297.1 c 11.9,0 21.5,9.6 21.5,21.5 0,11.9 -9.6,21.5 -21.5,21.5 -11.9,0 -21.5,-9.6 -21.5,-21.5 0,-2.8 0.5,-5.4 1.5,-7.8 2.1,-5.4 6.4,-9.8 11.8,-12 2.5,-1.1 5.3,-1.7 8.2,-1.7 m 0,-3 c -3.3,0 -6.5,0.6 -9.4,1.9 -6.1,2.5 -11,7.5 -13.4,13.7 -1.1,2.8 -1.7,5.8 -1.7,8.9 0,13.5 11,24.5 24.5,24.5 13.5,0 24.5,-11 24.5,-24.5 0,-13.5 -11,-24.5 -24.5,-24.5 z"
   id="path112"
   inkscape:connector-curvature="0"
   style="fill:#000000" />
</g>
<g
   id="g120"
   transform="matrix(0.71468453,0,0,0.71588367,-231.27192,-117.61969)">
	<path
   class="st2"
   d="m 348.1,211.7 c -12.7,0 -23,-10.3 -23,-23 0,-12.7 10.3,-23 23,-23 12.7,0 23,10.3 23,23 0,3 -0.6,5.9 -1.7,8.6 -2.3,5.7 -7,10.4 -12.7,12.7 -2.8,1.2 -5.7,1.7 -8.6,1.7 z"
   id="path116"
   inkscape:connector-curvature="0"
   style="fill:#f9a01b" />
	<path
   class="st3"
   d="m 348.1,167.3 c 11.9,0 21.5,9.6 21.5,21.5 0,2.9 -0.5,5.6 -1.6,8.1 -2.2,5.4 -6.5,9.7 -11.9,11.9 -2.5,1 -5.2,1.5 -8,1.5 -11.9,0 -21.5,-9.6 -21.5,-21.5 0,-11.9 9.6,-21.5 21.5,-21.5 m 0,-3 c -13.5,0 -24.5,11 -24.5,24.5 0,13.5 11,24.5 24.5,24.5 3.2,0 6.2,-0.6 9.1,-1.8 6.1,-2.5 11.1,-7.4 13.6,-13.5 1.2,-2.9 1.8,-6 1.8,-9.2 -0.1,-13.6 -11,-24.5 -24.5,-24.5 z"
   id="path118"
   inkscape:connector-curvature="0"
   style="fill:#000000" />
</g>
<rect
   x="263.89999"
   y="-117.79999"
   class="st4"
   width="286.60001"
   height="78.5"
   id="rect122"
   style="fill:none" />


<g
   id="g130"
   transform="matrix(0.71468453,0,0,0.71588367,-231.27192,-117.61969)">
	<path
   class="st7"
   d="m 413,283.3 c -16.2,0 -29.5,-13.2 -29.5,-29.5 0,-16.2 13.2,-29.5 29.5,-29.5 16.3,0 29.5,13.2 29.5,29.5 0,3.9 -0.7,7.6 -2.2,11.1 -3,7.4 -8.9,13.3 -16.3,16.3 -3.5,1.3 -7.2,2.1 -11,2.1 z"
   id="path126"
   inkscape:connector-curvature="0"
   style="fill:#e64f25" />
	<path
   class="st3"
   d="m 413,225.3 c 15.7,0 28.5,12.7 28.5,28.5 0,3.8 -0.7,7.4 -2.1,10.7 -2.9,7.2 -8.6,12.9 -15.8,15.7 -3.3,1.3 -6.9,2.1 -10.6,2.1 -15.7,0 -28.5,-12.8 -28.5,-28.5 0,-15.7 12.8,-28.5 28.5,-28.5 m 0,-2 c -16.8,0 -30.5,13.7 -30.5,30.5 0,16.8 13.7,30.5 30.5,30.5 3.9,0 7.8,-0.7 11.4,-2.2 7.6,-3.1 13.8,-9.2 16.9,-16.8 1.5,-3.6 2.2,-7.5 2.2,-11.4 0,-16.9 -13.7,-30.6 -30.5,-30.6 z"
   id="path128"
   inkscape:connector-curvature="0"
   style="fill:#000000" />
</g>
</svg>
